<?xml version="1.0" standalone="no"?>
<!DOCTYPE svg PUBLIC "-//W3C//DTD SVG 20010904//EN"
 "http://www.w3.org/TR/2001/REC-SVG-20010904/DTD/svg10.dtd">
<svg version="1.0" xmlns="http://www.w3.org/2000/svg"
 width="246.000000pt" height="246.000000pt" viewBox="0 0 246.000000 246.000000"
 preserveAspectRatio="xMidYMid meet">
<metadata>
Created by potrace 1.14, written by Peter Selinger 2001-2017
</metadata>
<g transform="translate(0.000000,246.000000) scale(0.100000,-0.100000)"
fill="#000000" stroke="none">
<path d="M1249 2365 c-10 -22 -58 -134 -108 -250 l-90 -210 -1 130 0 130 -522
0 -523 0 -1 -865 c-1 -476 2 -867 6 -870 5 -3 97 -5 204 -5 108 0 196 -3 196
-8 0 -5 -34 -87 -75 -184 -41 -96 -75 -179 -75 -183 0 -5 119 -8 264 -8 l263
1 68 161 c37 88 72 165 77 170 4 6 8 18 8 27 0 21 13 26 68 24 l42 -1 0 115
c0 123 2 131 94 336 12 28 38 87 57 132 19 46 36 83 39 83 3 0 7 -15 8 -32 11
-142 100 -344 196 -443 96 -99 181 -147 330 -187 67 -18 108 -21 241 -21 157
1 176 4 330 46 6 2 34 11 63 21 l52 18 0 155 c0 144 -1 155 -17 148 -221 -89
-351 -112 -493 -85 -201 38 -323 198 -347 455 -33 347 60 600 252 690 133 62
352 49 553 -33 l52 -22 0 164 0 164 -77 20 c-113 30 -133 32 -298 37 -158 3
-300 -16 -367 -51 -17 -9 -32 -14 -34 -12 -2 2 19 55 47 118 28 63 51 120 53
125 1 6 5 16 9 23 5 6 7 13 5 13 -2 1 -122 2 -267 3 l-264 2 -18 -41z m-217
-495 c-3 -15 -46 -122 -89 -218 -12 -29 -35 -80 -49 -115 -14 -34 -30 -66 -35
-71 -10 -11 -506 -12 -517 -1 -9 9 -10 408 -1 415 4 3 162 5 351 5 294 -1 343
-3 340 -15z m-299 -700 c-3 -16 -172 -412 -190 -445 -10 -19 -20 -21 -105 -19
-51 1 -95 2 -98 3 -4 1 -5 454 -1 471 0 3 90 5 199 5 168 -1 197 -3 195 -15z"/>
</g>
</svg>
