<svg id="Layer_1" data-name="Layer 1" xmlns="http://www.w3.org/2000/svg" viewBox="0 0 200.06 95.17"><defs><style>.cls-1{fill:#231f20;}.cls-2{fill:#f49e1e;}</style></defs><path class="cls-1" d="M214.12,477.36V434h26.13v6.91H222.42v10.79h17v6.74h-17v12.05h17.83v6.91Z" transform="translate(-214.12 -430.44)"/><path class="cls-1" d="M277.83,477c-1.46.34-2.93.6-4.41.8a31.6,31.6,0,0,1-4.22.3,20.6,20.6,0,0,1-5.73-.7,9.92,9.92,0,0,1-4-2.12,8.51,8.51,0,0,1-2.33-3.64,16.68,16.68,0,0,1-.74-5.26V449.93h-9.07v-6.31h9.07V435l8.3-2.16v10.79h13.11v6.31H264.72V465.8a6.33,6.33,0,0,0,1.33,4.37c.88,1,2.37,1.48,4.45,1.48a22.58,22.58,0,0,0,3.88-.34c1.26-.22,2.41-.47,3.45-.76Z" transform="translate(-214.12 -430.44)"/><path class="cls-1" d="M307.52,477.36v-22c0-3.7-1.38-5.55-4.12-5.55a5.86,5.86,0,0,0-3.93,1.66,28.4,28.4,0,0,0-4,4.52v21.35h-8.1V430.44h8.1V442l-.4,6.1a24.62,24.62,0,0,1,2.09-2.2,11.36,11.36,0,0,1,2.29-1.65,11.17,11.17,0,0,1,2.66-1,13.38,13.38,0,0,1,3.15-.35,11,11,0,0,1,4.52.85,8.66,8.66,0,0,1,3.22,2.39,10.29,10.29,0,0,1,1.94,3.72,17.06,17.06,0,0,1,.65,4.86v22.65Z" transform="translate(-214.12 -430.44)"/><path class="cls-1" d="M345.93,477.36l-.2-4.42a22.88,22.88,0,0,1-2.22,2.08,14.33,14.33,0,0,1-2.56,1.64,14.18,14.18,0,0,1-3,1.08,16.1,16.1,0,0,1-3.6.38,12.51,12.51,0,0,1-4.55-.76,9.14,9.14,0,0,1-3.28-2.13,8.74,8.74,0,0,1-2-3.29,12.51,12.51,0,0,1-.68-4.25,9.79,9.79,0,0,1,1-4.41,9.37,9.37,0,0,1,3.09-3.49,16.19,16.19,0,0,1,5.18-2.29,28.57,28.57,0,0,1,7.29-.83h4.41v-2a7.1,7.1,0,0,0-.36-2.34,4.25,4.25,0,0,0-1.18-1.78,5.58,5.58,0,0,0-2.11-1.13,10.83,10.83,0,0,0-3.19-.4,25.9,25.9,0,0,0-5.89.68,30.86,30.86,0,0,0-5.63,1.91v-6.47a31.64,31.64,0,0,1,5.59-1.6,33.89,33.89,0,0,1,6.6-.63,25.2,25.2,0,0,1,6.44.72,11.52,11.52,0,0,1,4.43,2.14,8.46,8.46,0,0,1,2.57,3.57,13.59,13.59,0,0,1,.83,5v23.05Zm-1.16-14.91h-4.95a12.91,12.91,0,0,0-3.48.4,6.73,6.73,0,0,0-2.33,1.09,4.42,4.42,0,0,0-1.31,1.61,4.77,4.77,0,0,0-.41,1.95,3.78,3.78,0,0,0,1.33,3.13,5.55,5.55,0,0,0,3.61,1.08,6.31,6.31,0,0,0,3.52-1.23,24.67,24.67,0,0,0,4-3.52Z" transform="translate(-214.12 -430.44)"/><path class="cls-2" d="M362.38,484.5h-7.87l23.17-54.06h7.9Z" transform="translate(-214.12 -430.44)"/><path class="cls-2" d="M406.08,477.36v-22q0-5.55-4.12-5.55a5.86,5.86,0,0,0-3.93,1.66,28.4,28.4,0,0,0-4,4.52v21.35H386V443.62h7l.2,5a23.29,23.29,0,0,1,2.14-2.35,13,13,0,0,1,2.41-1.82,11.85,11.85,0,0,1,2.79-1.14,12.82,12.82,0,0,1,3.35-.4,11,11,0,0,1,4.52.85,8.66,8.66,0,0,1,3.22,2.39,10.29,10.29,0,0,1,1.94,3.72,17.06,17.06,0,0,1,.65,4.86v22.65Z" transform="translate(-214.12 -430.44)"/><path class="cls-1" d="M235.23,523.93a23.14,23.14,0,0,1-3.83,1.18,18.72,18.72,0,0,1-3.86.39,15.82,15.82,0,0,1-5.67-1,10.75,10.75,0,0,1-4.16-2.8,12.43,12.43,0,0,1-2.56-4.63,21.07,21.07,0,0,1-.88-6.42,21.34,21.34,0,0,1,1-6.67A13.74,13.74,0,0,1,218,499.1a11.66,11.66,0,0,1,4.31-3.07A14.76,14.76,0,0,1,228,495c.69,0,1.33,0,1.92,0s1.19.09,1.77.17,1.15.19,1.75.33,1.2.31,1.84.52v5.55a17.6,17.6,0,0,0-3.69-1.3,14.64,14.64,0,0,0-3.18-.39,7.86,7.86,0,0,0-3.61.77,6.68,6.68,0,0,0-2.47,2.13,9.7,9.7,0,0,0-1.42,3.28,19.94,19.94,0,0,0,0,8.47,8.91,8.91,0,0,0,1.45,3.22,6.24,6.24,0,0,0,2.5,2,8.68,8.68,0,0,0,3.61.69,10.88,10.88,0,0,0,1.63-.14q.87-.15,1.77-.39a18.24,18.24,0,0,0,1.77-.57c.58-.22,1.13-.44,1.63-.67Z" transform="translate(-214.12 -430.44)"/><path class="cls-1" d="M256,511a10.46,10.46,0,0,0-.12-2.2,4.31,4.31,0,0,0-.55-1.5,2.22,2.22,0,0,0-.92-.86,2.65,2.65,0,0,0-1.25-.28,4.19,4.19,0,0,0-2.53,1,15,15,0,0,0-2.88,3.33v14.62h-5.68V502h5l.21,3.36a9.1,9.1,0,0,1,1.28-1.59,8.19,8.19,0,0,1,1.59-1.22,7.5,7.5,0,0,1,1.95-.78,9.51,9.51,0,0,1,2.34-.27,7.59,7.59,0,0,1,3.1.6,5.8,5.8,0,0,1,2.27,1.78,7.85,7.85,0,0,1,1.37,3,15.36,15.36,0,0,1,.37,4.12Z" transform="translate(-214.12 -430.44)"/><path class="cls-1" d="M281.23,525.09l-.14-3a14.45,14.45,0,0,1-1.52,1.42,9.36,9.36,0,0,1-1.75,1.13,9.65,9.65,0,0,1-2.08.74,11.15,11.15,0,0,1-2.47.26,8.48,8.48,0,0,1-3.11-.52,6.4,6.4,0,0,1-2.25-1.46,6,6,0,0,1-1.38-2.25,8.71,8.71,0,0,1-.46-2.91,6.67,6.67,0,0,1,.69-3,6.48,6.48,0,0,1,2.12-2.39,10.91,10.91,0,0,1,3.54-1.56,19.41,19.41,0,0,1,5-.57h3v-1.39a4.75,4.75,0,0,0-.25-1.6,2.86,2.86,0,0,0-.8-1.22,3.92,3.92,0,0,0-1.45-.77,7.58,7.58,0,0,0-2.18-.27,17.61,17.61,0,0,0-4,.46,21.15,21.15,0,0,0-3.86,1.31V503a22.51,22.51,0,0,1,3.83-1.09,22.92,22.92,0,0,1,4.51-.43,17.59,17.59,0,0,1,4.41.48,8.06,8.06,0,0,1,3,1.47,5.9,5.9,0,0,1,1.76,2.44,9.43,9.43,0,0,1,.57,3.42v15.78Zm-.8-10.21h-3.38a8.66,8.66,0,0,0-2.39.28,4.52,4.52,0,0,0-1.59.75,2.85,2.85,0,0,0-.9,1.1,3.14,3.14,0,0,0-.28,1.33,2.58,2.58,0,0,0,.91,2.14,3.75,3.75,0,0,0,2.47.74,4.32,4.32,0,0,0,2.41-.84,16.85,16.85,0,0,0,2.75-2.41Z" transform="translate(-214.12 -430.44)"/><path class="cls-1" d="M306.11,525.09V510c0-2.53-.93-3.79-2.81-3.79a4,4,0,0,0-2.7,1.13,20,20,0,0,0-2.71,3.09v14.62h-5.55V502h4.8l.13,3.41a15.42,15.42,0,0,1,1.47-1.62,8.91,8.91,0,0,1,1.65-1.24,7.66,7.66,0,0,1,1.91-.78,8.94,8.94,0,0,1,2.29-.27,7.57,7.57,0,0,1,3.09.58,5.93,5.93,0,0,1,2.21,1.63,7.11,7.11,0,0,1,1.33,2.55,11.83,11.83,0,0,1,.44,3.33v15.5Z" transform="translate(-214.12 -430.44)"/><path class="cls-1" d="M337,518.29a6.21,6.21,0,0,1-.88,3.38,6.87,6.87,0,0,1-2.31,2.27,10.68,10.68,0,0,1-3.28,1.27,17.21,17.21,0,0,1-3.74.4,39.83,39.83,0,0,1-4.59-.24,31.22,31.22,0,0,1-3.86-.69v-5a20.92,20.92,0,0,0,4.26,1.28,21.44,21.44,0,0,0,4,.4,6.13,6.13,0,0,0,3.26-.69,2.09,2.09,0,0,0,1.08-1.81,2,2,0,0,0-.22-1,2.37,2.37,0,0,0-.86-.83,8.94,8.94,0,0,0-1.76-.82c-.76-.28-1.75-.6-3-1a17.66,17.66,0,0,1-3-1.08,7.54,7.54,0,0,1-2.13-1.42,5.23,5.23,0,0,1-1.26-1.89,7,7,0,0,1-.42-2.54,5.73,5.73,0,0,1,.64-2.66,6.3,6.3,0,0,1,1.89-2.19A9.6,9.6,0,0,1,324,502a16.13,16.13,0,0,1,4.41-.54,29.48,29.48,0,0,1,3.86.22c1.13.15,2.12.32,3,.5v4.53a22.85,22.85,0,0,0-3.71-.9,22.45,22.45,0,0,0-3.45-.26,5.35,5.35,0,0,0-2.74.61,1.9,1.9,0,0,0-1,1.71,2.18,2.18,0,0,0,.2.93,2.27,2.27,0,0,0,.81.79,9.47,9.47,0,0,0,1.68.81c.72.28,1.67.59,2.85.92a21,21,0,0,1,3.37,1.22,8,8,0,0,1,2.19,1.46,5,5,0,0,1,1.2,1.87A7.26,7.26,0,0,1,337,518.29Z" transform="translate(-214.12 -430.44)"/><path class="cls-1" d="M362.57,524.86c-1,.23-2,.41-3,.55a22.91,22.91,0,0,1-2.89.2,14.15,14.15,0,0,1-3.92-.48,6.86,6.86,0,0,1-2.73-1.45,5.75,5.75,0,0,1-1.59-2.49,11.32,11.32,0,0,1-.51-3.6V506.31h-6.2V502h6.2v-5.91l5.68-1.48V502h9v4.31h-9v10.87a4.38,4.38,0,0,0,.91,3,4,4,0,0,0,3.05,1,15.57,15.57,0,0,0,2.66-.23,24,24,0,0,0,2.36-.52Z" transform="translate(-214.12 -430.44)"/><path class="cls-1" d="M389.91,513.36a15.5,15.5,0,0,1-.77,5,11,11,0,0,1-2.23,3.87,9.81,9.81,0,0,1-3.57,2.5,12.35,12.35,0,0,1-4.81.89,13.17,13.17,0,0,1-4.6-.75,9,9,0,0,1-3.43-2.24,9.84,9.84,0,0,1-2.16-3.73,16.4,16.4,0,0,1-.75-5.21,14.9,14.9,0,0,1,.79-5,10.77,10.77,0,0,1,2.25-3.84,9.9,9.9,0,0,1,3.58-2.47,12.44,12.44,0,0,1,4.77-.87,13,13,0,0,1,4.61.76,8.9,8.9,0,0,1,3.44,2.26,10,10,0,0,1,2.14,3.71A16,16,0,0,1,389.91,513.36Zm-5.77.14a9,9,0,0,0-1.35-5.4,4.67,4.67,0,0,0-4-1.81,5,5,0,0,0-2.48.57,4.82,4.82,0,0,0-1.68,1.56,7,7,0,0,0-1,2.3,12.7,12.7,0,0,0-.3,2.82,8.59,8.59,0,0,0,1.45,5.44,4.81,4.81,0,0,0,4,1.83,5,5,0,0,0,2.41-.55,4.57,4.57,0,0,0,1.66-1.55,7.44,7.44,0,0,0,.95-2.33A12.52,12.52,0,0,0,384.14,513.5Z" transform="translate(-214.12 -430.44)"/><path class="cls-1" d="M408.48,525.09V510q0-3.8-2.82-3.79a4,4,0,0,0-2.69,1.13,20,20,0,0,0-2.72,3.09v14.62h-5.54V502h4.79l.14,3.41a15.42,15.42,0,0,1,1.47-1.62,8.52,8.52,0,0,1,1.64-1.24,7.82,7.82,0,0,1,1.91-.78,9,9,0,0,1,2.3-.27,7.57,7.57,0,0,1,3.09.58,5.89,5.89,0,0,1,2.2,1.63,7,7,0,0,1,1.33,2.55,11.46,11.46,0,0,1,.45,3.33v15.5Z" transform="translate(-214.12 -430.44)"/></svg>